<svg width="46" height="34" viewBox="0 0 46 34" fill="none" xmlns="http://www.w3.org/2000/svg">
<path d="M40.2046 0H5.79536C2.59971 0 0 2.51794 0 5.61286V18.2418C0 21.3367 2.59971 23.8546 5.79536 23.8546H40.2046C43.4002 23.8546 46 21.3368 46 18.2418V5.61286C45.9999 2.51794 43.4002 0 40.2046 0ZM35.7675 21.2236H10.2324V20.8286C10.2324 19.2088 11.593 17.8909 13.2656 17.8909H32.7342C34.4069 17.8909 35.7674 19.2089 35.7674 20.8286L35.7675 21.2236ZM43.2833 18.2418C43.2833 19.886 41.9022 21.2236 40.2046 21.2236H38.4841V20.8286C38.4841 17.7581 35.9047 15.2599 32.7342 15.2599H13.2656C10.0951 15.2599 7.51577 17.7581 7.51577 20.8286V21.2236H5.79527C4.09759 21.2236 2.71651 19.886 2.71651 18.2418V5.61286C2.71651 3.96864 4.09759 2.63105 5.79527 2.63105H40.2046C41.9022 2.63105 43.2833 3.96864 43.2833 5.61286V18.2418Z" fill="black"/>
<path d="M38.5707 4.99898H36.8379C36.0876 4.99898 35.4792 5.58815 35.4792 6.31485C35.4792 7.04155 36.0876 7.63073 36.8379 7.63073H38.5707C39.321 7.63073 39.9293 7.04155 39.9293 6.31485C39.9294 5.58815 39.3211 4.99898 38.5707 4.99898Z" fill="black"/>
<path d="M32.048 5.00115H30.3152C29.5649 5.00115 28.9566 5.59033 28.9566 6.31703C28.9566 7.04373 29.5649 7.6329 30.3152 7.6329H32.048C32.7984 7.6329 33.4067 7.04373 33.4067 6.31703C33.4067 5.59033 32.7984 5.00115 32.048 5.00115Z" fill="black"/>
<path d="M22.9971 25.1842C22.247 25.1842 21.6389 25.7732 21.6389 26.4997V32.6845C21.6389 33.411 22.247 34 22.9971 34C23.7472 34 24.3554 33.411 24.3554 32.6845V26.4997C24.3554 25.7732 23.7472 25.1842 22.9971 25.1842Z" fill="black"/>
<path d="M30.8737 31.3689C29.6127 31.3689 28.587 30.3754 28.587 29.1543V26.4996C28.587 25.7731 27.9788 25.1841 27.2287 25.1841C26.4786 25.1841 25.8705 25.7731 25.8705 26.4996V29.1543C25.8705 31.8262 28.1149 34 30.8738 34C31.6239 34 32.232 33.411 32.232 32.6845C32.2319 31.9579 31.6238 31.3689 30.8737 31.3689Z" fill="black"/>
<path d="M18.7672 25.1841C18.0171 25.1841 17.409 25.7731 17.409 26.4996V29.1543C17.409 30.3755 16.3832 31.3689 15.1223 31.3689C14.3722 31.3689 13.764 31.9579 13.764 32.6844C13.764 33.4109 14.3722 33.9999 15.1223 33.9999C17.8811 33.9999 20.1256 31.8261 20.1256 29.1542V26.4995C20.1256 25.7731 19.5174 25.1841 18.7672 25.1841Z" fill="black"/>
</svg>
