<svg width="44" height="44" viewBox="0 0 44 44" fill="none" xmlns="http://www.w3.org/2000/svg">
<g clip-path="url(#clip0_1685_7800)">
<path d="M43.0839 10.084C42.5764 10.084 42.1654 10.4941 42.1654 11.0004V18.3339H40.3339V16.5003C40.3339 14.4788 38.6877 12.834 36.6654 12.834C35.5725 12.834 34.5896 13.316 33.9155 14.0793C33.2441 13.316 32.2612 12.834 31.1655 12.834C30.0725 12.834 29.0897 13.316 28.4156 14.0793C27.7442 13.316 26.7613 12.834 25.6656 12.834C24.5725 12.834 23.5897 13.316 22.9163 14.0793C22.2442 13.316 21.2613 12.834 20.1663 12.834C19.0726 12.834 18.0891 13.316 17.4163 14.0793C16.7442 13.316 15.7613 12.834 14.6663 12.834C13.5726 12.834 12.5891 13.316 11.9163 14.0793C11.2442 13.316 10.2613 12.834 9.16627 12.834C7.4617 12.834 6.02353 14.0041 5.61533 15.5839H2.75C2.24374 15.5839 1.83356 15.9941 1.83356 16.5003V18.3339H0.916438C0.41018 18.3339 0 18.7441 0 19.2503C0 19.7566 0.41018 20.1668 0.916438 20.1668H1.83356V22.0003C1.83356 22.5066 2.24374 22.9168 2.75 22.9168H5.5V40.3344C5.5 42.3553 7.14493 44.0001 9.16644 44.0001C10.2615 44.0001 11.2444 43.5167 11.9164 42.754C12.5892 43.5167 13.5727 44.0001 14.6664 44.0001C15.7615 44.0001 16.7444 43.5167 17.4164 42.754C18.0892 43.5167 19.0727 44.0001 20.1664 44.0001C21.2615 44.0001 22.2444 43.5167 22.9164 42.754C23.5898 43.5167 24.5727 44.0001 25.6657 44.0001C26.7615 44.0001 27.7444 43.5167 28.4157 42.754C29.0898 43.5167 30.0727 44.0001 31.1657 44.0001C32.2614 44.0001 33.2443 43.5167 33.9157 42.754C34.5898 43.5167 35.5726 44.0001 36.6656 44.0001C38.6878 44.0001 40.3341 42.3552 40.3341 40.3344V20.1668H43.0841C43.589 20.1668 43.9998 19.7566 43.9998 19.2503V11.0004C43.9997 10.4941 43.5888 10.084 43.0839 10.084ZM3.66644 21.0839V17.4168H5.5V21.0839H3.66644ZM9.16635 42.1659C8.15598 42.1659 7.33348 41.3442 7.33348 40.3344V16.5003C7.33348 15.4899 8.1559 14.6668 9.16635 14.6668C10.1781 14.6668 10.9999 15.4899 10.9999 16.5003V40.3344C10.9999 41.3442 10.1781 42.1659 9.16635 42.1659ZM14.6664 42.1659C13.656 42.1659 12.8335 41.3442 12.8335 40.3344V16.5003C12.8335 15.4899 13.6559 14.6668 14.6664 14.6668C15.6781 14.6668 16.4999 15.4899 16.4999 16.5003V40.3344C16.4998 41.3442 15.6781 42.1659 14.6664 42.1659ZM20.1663 42.1659C19.1559 42.1659 18.3334 41.3442 18.3334 40.3344V16.5003C18.3334 15.4899 19.1558 14.6668 20.1663 14.6668C21.178 14.6668 21.9998 15.4899 21.9998 16.5003V40.3344C21.9998 41.3442 21.1781 42.1659 20.1663 42.1659ZM25.6656 42.1659C24.6558 42.1659 23.8341 41.3442 23.8341 40.3344V16.5003C23.8341 15.4899 24.6558 14.6668 25.6656 14.6668C26.678 14.6668 27.4998 15.4899 27.4998 16.5003V40.3344C27.4998 41.3442 26.6781 42.1659 25.6656 42.1659ZM31.1655 42.1659C30.1558 42.1659 29.334 41.3442 29.334 40.3344V16.5003C29.334 15.4899 30.1557 14.6668 31.1655 14.6668C32.1779 14.6668 32.9997 15.4899 32.9997 16.5003V40.3344C32.9997 41.3442 32.178 42.1659 31.1655 42.1659ZM38.4997 40.3344C38.4997 41.3442 37.6779 42.1659 36.6654 42.1659C35.6557 42.1659 34.8339 41.3442 34.8339 40.3344V16.5003C34.8339 15.4899 35.6556 14.6668 36.6654 14.6668C37.6778 14.6668 38.4997 15.4899 38.4997 16.5003V40.3344ZM28.9057 9.41589C29.1057 10.1122 29.4925 10.6049 29.5354 10.6593V10.6586C29.7046 10.8668 29.9611 11.0004 30.2497 11.0004C30.756 11.0004 31.1655 10.5902 31.1655 10.084C31.1655 9.86577 31.0903 9.66571 30.9641 9.50861C30.9614 9.50595 30.7626 9.24341 30.6686 8.90971C30.5558 8.51964 30.6256 8.23562 30.8996 7.95968C31.6435 7.21245 31.8905 6.2423 31.5924 5.22583C31.3937 4.54366 31.007 4.06164 30.9586 4.00122C30.956 4.00122 30.956 4.00054 30.956 4.00054V3.99856V3.99925C30.7868 3.79652 30.5344 3.66693 30.2497 3.66693C29.7435 3.66693 29.334 4.07779 29.334 4.58405C29.334 4.80629 29.4119 5.01039 29.5435 5.16886C29.5462 5.17083 29.7395 5.42134 29.8335 5.74086C29.9423 6.11614 29.8739 6.39278 29.5999 6.66606C28.8587 7.41182 28.6103 8.38868 28.9057 9.41589ZM21.3285 8.82309C21.6011 9.84901 22.1281 10.5613 22.1865 10.6392L22.1879 10.6378C22.2729 10.7506 22.3829 10.8421 22.5094 10.905C22.6358 10.9679 22.7751 11.0006 22.9164 11.0004C23.4232 11.0004 23.8342 10.5902 23.8342 10.084C23.8342 9.87651 23.7644 9.68582 23.6489 9.53276C23.6448 9.52743 23.2628 9.00777 23.0876 8.30282C22.8761 7.45754 23.0453 6.73919 23.6032 6.10738C24.5835 4.99956 24.895 3.6414 24.5056 2.1778C24.2316 1.15188 23.7053 0.439543 23.6462 0.361684V0.363059C23.477 0.143488 23.2146 0.000488281 22.9164 0.000488281C22.41 0.000488281 21.9998 0.410668 21.9998 0.916926C21.9998 1.12438 22.069 1.31507 22.1851 1.46813H22.1837C22.1878 1.47346 22.5698 1.99312 22.7464 2.69875C22.9572 3.54326 22.788 4.2617 22.2294 4.89343C21.2505 6.00125 20.939 7.35949 21.3285 8.82309ZM14.2393 9.41589C14.4394 10.1122 14.8261 10.6049 14.8698 10.6593V10.6586C15.0383 10.8668 15.2947 11.0004 15.5835 11.0004C16.0897 11.0004 16.4999 10.5902 16.4999 10.084C16.4999 9.86577 16.4233 9.66571 16.2965 9.50861H16.2972C16.2952 9.50595 16.0971 9.24341 16.0011 8.90971C15.889 8.51964 15.9582 8.23562 16.2327 7.95968C16.9773 7.21245 17.223 6.2423 16.9256 5.22583C16.7262 4.54366 16.3421 4.06301 16.2904 4.00122C16.2904 4.00122 16.2904 4.00054 16.2897 4.00054L16.289 3.99856V3.99925C16.1205 3.79652 15.8674 3.66693 15.5834 3.66693C15.0771 3.66693 14.6663 4.07779 14.6663 4.58405C14.6663 4.80629 14.7455 5.01039 14.8771 5.16886C14.879 5.17083 15.0724 5.42134 15.1657 5.74086C15.2758 6.11614 15.206 6.39278 14.9334 6.66606C14.1909 7.41182 13.9439 8.38868 14.2393 9.41589Z" fill="#005D20"/>
</g>
<defs>
<clipPath id="clip0_1685_7800">
<rect width="44" height="44" fill="white"/>
</clipPath>
</defs>
</svg>
