<svg width="53" height="40" viewBox="0 0 53 40" fill="none" xmlns="http://www.w3.org/2000/svg">
<path d="M52.1568 20.9635H32.5064H19.3069V16.7052V7.64343H23.2916V9.39164C21.4529 9.78028 20.0689 11.4129 20.0689 13.3624C20.0689 13.8273 20.4464 14.2041 20.9121 14.2041H27.3574C27.3577 14.2042 27.358 14.2041 27.3581 14.2041C27.8238 14.2041 28.2013 13.8273 28.2013 13.3624C28.2013 13.3496 28.2011 13.3369 28.2005 13.3242C28.1826 11.3916 26.8047 9.77775 24.978 9.39165V7.64343H29.361C29.5173 7.64343 29.6671 7.61546 29.8058 7.56436C29.9445 7.61546 30.0943 7.64343 30.2505 7.64343H40.7031C40.8576 7.64343 41.0058 7.61609 41.1431 7.56609C41.279 7.61609 41.4255 7.64343 41.5782 7.64343H45.791V9.39164C43.9524 9.78028 42.5683 11.4129 42.5683 13.3624C42.5683 13.8273 42.9459 14.2041 43.4116 14.2041H49.8569C50.3226 14.2041 50.7001 13.8273 50.7001 13.3624C50.7001 11.4129 49.3161 9.78028 47.4775 9.39164V7.64343H51.6903C52.3924 7.64343 52.9637 7.06665 52.9637 6.35768V1.28576C52.9637 0.576788 52.3924 0 51.6903 0H41.5782C41.4255 0 41.279 0.0273397 41.1431 0.0773431C41.0058 0.0273397 40.8576 0 40.7031 0H30.2505C30.0943 0 29.9445 0.0279731 29.8058 0.0790775C29.6671 0.0279731 29.5173 0 29.361 0H18.9085C18.7689 0 18.6346 0.0225727 18.5086 0.0637478C18.3887 0.0226401 18.2602 0 18.1264 0H1.18052C0.529588 0 0 0.52865 0 1.17845V16.7052V38.8215C0 39.4713 0.529588 40 1.18052 40H18.1264C18.1887 40 18.2499 39.9951 18.3097 39.9857C18.3596 39.9949 18.4111 40 18.4637 40H32.5064H52.1568C52.6225 40 53 39.6231 53 39.1582V21.8053C53 21.3404 52.6225 20.9635 52.1568 20.9635ZM26.3599 12.5206H21.9097C22.2507 11.6252 23.1195 10.9871 24.1348 10.9871C25.15 10.9871 26.0188 11.6252 26.3599 12.5206ZM48.8593 12.5206H44.4091C44.7502 11.6252 45.619 10.9871 46.6342 10.9871C47.6495 10.9871 48.5183 11.6252 48.8593 12.5206ZM33.3497 22.6471H51.2773V26.3506H33.3497V22.6471ZM31.6632 22.647V27.1923V29.413H19.3069V22.647L31.6632 22.647ZM51.2773 5.95993H41.9911V1.6835H51.2773V5.95993ZM40.3047 5.95993H30.6491V1.6835H40.3047V5.95993ZM28.9626 5.95993H19.3069V1.6835H28.9626V5.95993ZM1.68646 1.6835H17.6205V6.35768V16.2001H1.68646V1.6835ZM1.68646 17.8836H17.6205V21.8053V30.2547V38.3165H1.68646V17.8836ZM19.3069 38.3165V31.0965H31.6632V38.3165H19.3069ZM33.3497 38.3165V30.2547V28.0341H51.3135V38.3165H33.3497Z" fill="#005D20"/>
</svg>
