<svg width="38" height="37" viewBox="0 0 38 37" fill="none" xmlns="http://www.w3.org/2000/svg">
<path d="M31.873 0H6.12698C2.74854 0 0 2.67621 0 5.96574V31.0343C0 34.3238 2.74854 37 6.12698 37H31.873C35.2515 37 38 34.3238 38 31.0343V5.96574C38 2.67621 35.2515 0 31.873 0ZM35.7559 31.0343C35.7559 33.1189 34.0141 34.815 31.873 34.815H6.12698C3.98599 34.815 2.24408 33.119 2.24408 31.0343V5.96574C2.24408 3.8811 3.98592 2.18502 6.12698 2.18502H31.873C34.014 2.18502 35.7559 3.88103 35.7559 5.96574V31.0343Z" fill="#005D20"/>
<path d="M19.7871 6.08115H14.4203C12.3579 6.08115 10.6801 7.71486 10.6801 9.72291V29.8242C10.6801 30.4276 11.1825 30.9168 11.8021 30.9168H17.0383C17.658 30.9168 18.1604 30.4276 18.1604 29.8243V23.6702H19.787C24.7674 23.6702 28.8192 19.725 28.8192 14.8757C28.8192 10.0264 24.7675 6.08115 19.7871 6.08115ZM19.7871 21.4851H17.0384C16.4187 21.4851 15.9164 21.9743 15.9164 22.5777V28.7317H12.9242V9.72283C12.9242 8.9196 13.5954 8.26618 14.4203 8.26618H19.7871C23.53 8.26618 26.5752 11.2312 26.5752 14.8757C26.5752 18.5202 23.53 21.4851 19.7871 21.4851Z" fill="#005D20"/>
<path d="M19.7865 11.1797H17.0378C16.4182 11.1797 15.9158 11.6688 15.9158 12.2722V17.4794C15.9158 18.0827 16.4182 18.5719 17.0378 18.5719H19.7865C21.8796 18.5719 23.5825 16.9138 23.5825 14.8758C23.5824 12.8377 21.8796 11.1797 19.7865 11.1797ZM19.7865 16.3868H18.1599V13.3647H19.7865C20.6422 13.3647 21.3383 14.0425 21.3383 14.8758C21.3383 15.7089 20.6422 16.3868 19.7865 16.3868Z" fill="#005D20"/>
</svg>
