<svg width="57" height="38" viewBox="0 0 57 38" fill="none" xmlns="http://www.w3.org/2000/svg">
<path d="M56.8391 10.9774L55.572 5.53432L46.213 8.19633L45.3445 4.46504L48.4648 3.5775L47.632 0L38.1553 2.6955L38.988 6.273L42.1083 5.38546L42.9768 9.11675L12.5888 17.7603L11.7203 14.0289L14.8406 13.1413L14.0078 9.56384L4.53101 12.2593L5.36376 15.8368L8.48401 14.9493L9.35252 18.6807L0 21.341L1.26706 26.7841C1.95612 29.7444 4.77896 31.5885 7.458 30.8267L24.0075 26.1194C23.9828 26.3435 23.9687 26.5712 23.9687 26.8026V34.306H17.9021V38H40.2039V34.306H34.1375V26.8026C34.1375 25.5747 33.7784 24.4384 33.1717 23.5128L53.1821 17.8211C55.8971 17.0488 57.5376 13.9788 56.8391 10.9774ZM27.3104 34.3059V26.8024C27.3104 25.7402 28.0922 24.876 29.0531 24.876C30.0139 24.876 30.7958 25.7402 30.7958 26.8024V34.3059H27.3104ZM52.3494 14.2435L6.62525 27.2492C5.69459 27.5139 4.74276 26.8923 4.50327 25.8637L4.06896 23.9981L53.1684 10.0324L53.6027 11.8979C53.8422 12.9266 53.2799 13.9789 52.3494 14.2435Z" fill="#005D20"/>
</svg>
