<svg width="36" height="46" viewBox="0 0 36 46" fill="none" xmlns="http://www.w3.org/2000/svg">
<path d="M35.4818 33.7022C34.9292 33.2675 34.1647 33.4138 33.7741 34.0289C33.769 34.0369 33.2173 34.8563 32.1809 35.385C30.7086 36.136 28.9937 35.9519 27.084 34.8376C27.0081 34.7933 26.9313 34.7492 26.8542 34.7053V9.72252C26.8542 5.86539 29.6737 2.72736 33.1391 2.72736C33.8158 2.72736 34.3644 2.11679 34.3644 1.36363C34.3643 0.610572 33.8157 0 33.139 0C28.3223 0 24.4037 4.36151 24.4037 9.72252V13.8872H5.24001V9.72252C5.24001 5.86548 8.05941 2.72745 11.5249 2.72745C12.2016 2.72745 12.7501 2.11688 12.7501 1.36372C12.7501 0.610572 12.2016 0 11.5249 0C6.70823 0 2.78958 4.36151 2.78958 9.72252V33.6459C2.10596 33.9422 1.41395 34.2686 0.713215 34.6275C0.0985301 34.9424 -0.170349 35.7523 0.112495 36.4365C0.3955 37.1206 1.12319 37.4199 1.73788 37.105C12.2796 31.7037 20.721 34.2043 25.9461 37.2531C27.6041 38.2206 29.0614 38.5613 30.2923 38.5612C31.4814 38.5612 32.4594 38.243 33.2018 37.8643C34.8371 37.0301 35.6841 35.7465 35.7752 35.6028C36.1658 34.9877 36.0344 34.1368 35.4818 33.7022ZM24.4037 33.4595C19.5806 31.3 13.0349 30.0473 5.24001 32.6986V26.2284H24.4037V33.4595ZM24.4037 23.5011H5.24001V16.6146H24.4037V23.5011Z" fill="black"/>
<path d="M35.4817 41.1409C34.9291 40.7064 34.1646 40.8525 33.7741 41.4676C33.7689 41.4756 33.2173 42.2951 32.1808 42.8238C30.7085 43.5749 28.9936 43.3906 27.0839 42.2764C21.3716 38.9434 12.1596 36.2012 0.713215 42.0662C0.0985303 42.3811 -0.170349 43.1911 0.112495 43.8752C0.3955 44.5594 1.12311 44.8586 1.7378 44.5437C12.2795 39.1425 20.7208 41.6431 25.946 44.6919C27.604 45.6593 29.0613 46.0001 30.2922 46C31.4813 46 32.4593 45.6818 33.2017 45.3031C34.837 44.4688 35.684 43.1852 35.7751 43.0416C36.1657 42.4265 36.0343 41.5756 35.4817 41.1409Z" fill="black"/>
</svg>
