<svg width="42" height="37" viewBox="0 0 42 37" fill="none" xmlns="http://www.w3.org/2000/svg">
<path d="M40.7504 0H1.24958C0.559453 0 0 0.581115 0 1.29797V29.0827C0 29.7995 0.559453 30.3807 1.24958 30.3807H14.995V34.4041H10.416C9.72587 34.4041 9.16642 34.9852 9.16642 35.702C9.16642 36.4189 9.72587 37 10.416 37H31.5847C32.2748 37 32.8342 36.4189 32.8342 35.702C32.8342 34.9852 32.2748 34.4041 31.5847 34.4041H27.0057V30.3807H40.7504C41.4405 30.3807 42 29.7995 42 29.0827V1.29797C42 0.581115 41.4405 0 40.7504 0ZM24.5063 34.4041H17.4941V30.3807H24.5063V34.4041ZM39.5008 27.7847H2.49916V25.574H39.5008L39.5008 27.7847ZM39.5008 22.978H2.49916V2.59593H39.5008L39.5008 22.978Z" fill="#005D20"/>
</svg>
