<svg width="36" height="44" viewBox="0 0 36 44" fill="none" xmlns="http://www.w3.org/2000/svg">
<path d="M32.2326 44H3.76744C1.69007 44 0 42.2652 0 40.1328V3.86719C0 1.73482 1.69007 0 3.76744 0H32.2326C34.3099 0 36 1.73491 36 3.86719V40.1328C36 42.2652 34.3099 44 32.2326 44ZM3.76744 2.57812C3.07499 2.57812 2.51163 3.1564 2.51163 3.86719V40.1328C2.51163 40.8436 3.07499 41.4219 3.76744 41.4219H32.2326C32.925 41.4219 33.4884 40.8436 33.4884 40.1328V3.86719C33.4884 3.1564 32.925 2.57812 32.2326 2.57812H3.76744Z" fill="#005D20"/>
<path d="M34.7442 12.2891H1.25581C0.56227 12.2891 0 11.7119 0 11C0 10.2881 0.56227 9.71094 1.25581 9.71094H34.7442C35.4377 9.71094 36 10.2881 36 11C36 11.7119 35.4377 12.2891 34.7442 12.2891Z" fill="#005D20"/>
<path d="M10.6367 12.2891C9.9432 12.2891 9.38093 11.7119 9.38093 11V1.28906C9.38093 0.577156 9.9432 0 10.6367 0C11.3303 0 11.8926 0.577156 11.8926 1.28906V11C11.8926 11.7119 11.3303 12.2891 10.6367 12.2891Z" fill="#005D20"/>
<path d="M29.3952 7.47733H28.0553C27.3615 7.47733 26.7991 6.9 26.7991 6.18789C26.7991 5.47577 27.3615 4.89844 28.0553 4.89844H29.3952C30.089 4.89844 30.6514 5.47577 30.6514 6.18789C30.6514 6.9 30.089 7.47733 29.3952 7.47733Z" fill="#005D20"/>
<path d="M22.6892 7.47733H21.3492C20.6555 7.47733 20.093 6.9 20.093 6.18789C20.093 5.47577 20.6555 4.89844 21.3492 4.89844H22.6892C23.3829 4.89844 23.9453 5.47577 23.9453 6.18789C23.9453 6.9 23.3829 7.47733 22.6892 7.47733Z" fill="#005D20"/>
<path d="M18.0042 38.4141C11.7721 38.4141 6.70186 33.2096 6.70186 26.8125C6.70186 20.4155 11.7721 15.2109 18.0042 15.2109C24.2363 15.2109 29.3065 20.4155 29.3065 26.8125C29.3065 33.2096 24.2363 38.4141 18.0042 38.4141ZM18.0042 17.7891C13.157 17.7891 9.21349 21.8371 9.21349 26.8125C9.21349 31.788 13.157 35.8359 18.0042 35.8359C22.8514 35.8359 26.7949 31.788 26.7949 26.8125C26.7949 21.837 22.8514 17.7891 18.0042 17.7891Z" fill="#005D20"/>
<path d="M16.0036 7.47733C16.6974 7.47733 17.2598 6.90003 17.2598 6.18789C17.2598 5.47574 16.6974 4.89844 16.0036 4.89844C15.3099 4.89844 14.7474 5.47574 14.7474 6.18789C14.7474 6.90003 15.3099 7.47733 16.0036 7.47733Z" fill="#005D20"/>
</svg>
