<svg width="45" height="39" viewBox="0 0 45 39" fill="none" xmlns="http://www.w3.org/2000/svg">
<path d="M22.408 39C24.0098 39 25.3084 37.6313 25.3084 35.943C25.3084 34.2546 24.0098 32.8859 22.408 32.8859C20.8062 32.8859 19.5076 34.2546 19.5076 35.943C19.5076 37.6313 20.8062 39 22.408 39Z" fill="black"/>
<path d="M44.5281 10.1312C38.7511 3.59814 30.9282 9.26378e-05 22.4997 0C14.0719 9.26378e-05 6.24899 3.59814 0.471858 10.1312C-0.189958 10.8797 -0.150846 12.0522 0.559309 12.7498C1.26955 13.4474 2.38181 13.4063 3.04371 12.6577C8.14839 6.88484 15.058 3.7056 22.5003 3.70551C29.942 3.7056 36.8516 6.88484 41.9563 12.6577C42.3025 13.0491 42.7719 13.2472 43.2425 13.2472C43.6717 13.2472 44.1019 13.0825 44.4407 12.7498C45.1508 12.0521 45.19 10.8797 44.5281 10.1312Z" fill="black"/>
<path d="M38.0697 17.7821C33.7994 13.2471 28.2685 10.7497 22.4959 10.7499C16.7219 10.75 11.191 13.2475 6.92194 17.7823C6.23815 18.5086 6.24245 19.6817 6.9316 20.4024C7.62075 21.1232 8.73371 21.1186 9.4175 20.3922C13.0214 16.5639 17.6661 14.4555 22.4959 14.4554C27.3244 14.4552 31.9691 16.5637 35.5743 20.3924C35.918 20.7573 36.3699 20.94 36.822 20.94C37.2696 20.94 37.7174 20.7608 38.0604 20.4022C38.7494 19.6814 38.7536 18.5084 38.0697 17.7821Z" fill="black"/>
<path d="M31.0321 25.4556C28.7451 23.0675 25.4671 21.5841 22.4769 21.5841H22.3476C19.3573 21.5841 16.079 23.0676 13.7922 25.4556C13.1026 26.1758 13.0974 27.3488 13.7806 28.0758C14.1244 28.4414 14.5768 28.6245 15.0294 28.6245C15.4765 28.6245 15.9238 28.4459 16.2664 28.088C17.8944 26.3879 20.2813 25.2896 22.3478 25.2896H22.4766C24.5428 25.2896 26.9299 26.388 28.5577 28.088C29.2473 28.8081 30.3604 28.8029 31.0436 28.0758C31.7269 27.3489 31.7217 26.1758 31.0321 25.4556Z" fill="black"/>
</svg>
