<svg width="64" height="64" viewBox="0 0 64 64" fill="none" xmlns="http://www.w3.org/2000/svg">
<path d="M60 52H58V18C58 17.4696 57.7893 16.9609 57.4142 16.5858C57.0391 16.2107 56.5304 16 56 16H46V10C46 9.46957 45.7893 8.96086 45.4142 8.58579C45.0391 8.21071 44.5304 8 44 8H20C19.4696 8 18.9609 8.21071 18.5858 8.58579C18.2107 8.96086 18 9.46957 18 10V24H8C7.46957 24 6.96086 24.2107 6.58579 24.5858C6.21071 24.9609 6 25.4696 6 26V52H4C3.46957 52 2.96086 52.2107 2.58579 52.5858C2.21071 52.9609 2 53.4696 2 54C2 54.5304 2.21071 55.0391 2.58579 55.4142C2.96086 55.7893 3.46957 56 4 56H60C60.5304 56 61.0391 55.7893 61.4142 55.4142C61.7893 55.0391 62 54.5304 62 54C62 53.4696 61.7893 52.9609 61.4142 52.5858C61.0391 52.2107 60.5304 52 60 52ZM10 28H20C20.5304 28 21.0391 27.7893 21.4142 27.4142C21.7893 27.0391 22 26.5304 22 26V12H42V18C42 18.5304 42.2107 19.0391 42.5858 19.4142C42.9609 19.7893 43.4696 20 44 20H54V52H38V42C38 41.4696 37.7893 40.9609 37.4142 40.5858C37.0391 40.2107 36.5304 40 36 40H28C27.4696 40 26.9609 40.2107 26.5858 40.5858C26.2107 40.9609 26 41.4696 26 42V52H10V28ZM34 52H30V44H34V52ZM28 18C28 17.4696 28.2107 16.9609 28.5858 16.5858C28.9609 16.2107 29.4696 16 30 16H34C34.5304 16 35.0391 16.2107 35.4142 16.5858C35.7893 16.9609 36 17.4696 36 18C36 18.5304 35.7893 19.0391 35.4142 19.4142C35.0391 19.7893 34.5304 20 34 20H30C29.4696 20 28.9609 19.7893 28.5858 19.4142C28.2107 19.0391 28 18.5304 28 18ZM28 26C28 25.4696 28.2107 24.9609 28.5858 24.5858C28.9609 24.2107 29.4696 24 30 24H34C34.5304 24 35.0391 24.2107 35.4142 24.5858C35.7893 24.9609 36 25.4696 36 26C36 26.5304 35.7893 27.0391 35.4142 27.4142C35.0391 27.7893 34.5304 28 34 28H30C29.4696 28 28.9609 27.7893 28.5858 27.4142C28.2107 27.0391 28 26.5304 28 26ZM42 26C42 25.4696 42.2107 24.9609 42.5858 24.5858C42.9609 24.2107 43.4696 24 44 24H48C48.5304 24 49.0391 24.2107 49.4142 24.5858C49.7893 24.9609 50 25.4696 50 26C50 26.5304 49.7893 27.0391 49.4142 27.4142C49.0391 27.7893 48.5304 28 48 28H44C43.4696 28 42.9609 27.7893 42.5858 27.4142C42.2107 27.0391 42 26.5304 42 26ZM22 34C22 34.5304 21.7893 35.0391 21.4142 35.4142C21.0391 35.7893 20.5304 36 20 36H16C15.4696 36 14.9609 35.7893 14.5858 35.4142C14.2107 35.0391 14 34.5304 14 34C14 33.4696 14.2107 32.9609 14.5858 32.5858C14.9609 32.2107 15.4696 32 16 32H20C20.5304 32 21.0391 32.2107 21.4142 32.5858C21.7893 32.9609 22 33.4696 22 34ZM22 42C22 42.5304 21.7893 43.0391 21.4142 43.4142C21.0391 43.7893 20.5304 44 20 44H16C15.4696 44 14.9609 43.7893 14.5858 43.4142C14.2107 43.0391 14 42.5304 14 42C14 41.4696 14.2107 40.9609 14.5858 40.5858C14.9609 40.2107 15.4696 40 16 40H20C20.5304 40 21.0391 40.2107 21.4142 40.5858C21.7893 40.9609 22 41.4696 22 42ZM28 34C28 33.4696 28.2107 32.9609 28.5858 32.5858C28.9609 32.2107 29.4696 32 30 32H34C34.5304 32 35.0391 32.2107 35.4142 32.5858C35.7893 32.9609 36 33.4696 36 34C36 34.5304 35.7893 35.0391 35.4142 35.4142C35.0391 35.7893 34.5304 36 34 36H30C29.4696 36 28.9609 35.7893 28.5858 35.4142C28.2107 35.0391 28 34.5304 28 34ZM42 34C42 33.4696 42.2107 32.9609 42.5858 32.5858C42.9609 32.2107 43.4696 32 44 32H48C48.5304 32 49.0391 32.2107 49.4142 32.5858C49.7893 32.9609 50 33.4696 50 34C50 34.5304 49.7893 35.0391 49.4142 35.4142C49.0391 35.7893 48.5304 36 48 36H44C43.4696 36 42.9609 35.7893 42.5858 35.4142C42.2107 35.0391 42 34.5304 42 34ZM42 42C42 41.4696 42.2107 40.9609 42.5858 40.5858C42.9609 40.2107 43.4696 40 44 40H48C48.5304 40 49.0391 40.2107 49.4142 40.5858C49.7893 40.9609 50 41.4696 50 42C50 42.5304 49.7893 43.0391 49.4142 43.4142C49.0391 43.7893 48.5304 44 48 44H44C43.4696 44 42.9609 43.7893 42.5858 43.4142C42.2107 43.0391 42 42.5304 42 42Z" fill="black"/>
</svg>
