<svg width="24" height="24" viewBox="0 0 24 24" fill="none" xmlns="http://www.w3.org/2000/svg">
<g clip-path="url(#clip0_1344_6318)">
<path d="M21.7979 10.875H10.9457C8.46338 10.875 6.04735 10.4161 3.75076 9.51009V2.57812C3.75076 1.93195 4.27646 1.40625 4.92263 1.40625H5.86013C6.5063 1.40625 7.03201 1.93195 7.03201 2.57812V2.91075C5.95121 3.21764 5.15701 4.2128 5.15701 5.39062V6.32812C5.15701 6.71644 5.47182 7.03125 5.86013 7.03125H9.61013C9.99844 7.03125 10.3133 6.71644 10.3133 6.32812V5.39062C10.3133 4.2128 9.51905 3.21769 8.43826 2.91075V2.57812C8.43826 1.15655 7.28171 0 5.86013 0H4.92263C3.50105 0 2.34451 1.15655 2.34451 2.57812V9.01364C1.45533 8.91544 0.564803 9.39356 0.182959 10.2525C-0.0458843 10.7672 -0.0605093 11.3404 0.141663 11.8663C0.343834 12.3923 0.738709 12.808 1.25354 13.0369C1.30468 13.0596 1.35605 13.0817 1.40729 13.104V15.7969C1.40729 17.9701 2.50862 19.8908 4.18233 21.0307L2.93162 22.9068C2.71618 23.2299 2.80351 23.6664 3.12662 23.8818C3.24652 23.9618 3.38194 24 3.51601 24C3.74321 24 3.96619 23.89 4.10166 23.6868L5.43216 21.691C6.1463 21.971 6.92316 22.125 7.73537 22.125H16.1729C16.9851 22.125 17.7619 21.971 18.4761 21.691L19.8066 23.6868C19.9421 23.89 20.165 24 20.3923 24C20.5263 24 20.6618 23.9618 20.7817 23.8818C21.1048 23.6664 21.1921 23.2299 20.9767 22.9068L19.7259 21.0308C21.3997 19.8909 22.501 17.9702 22.501 15.7969V14.9729C23.3194 14.6827 23.9073 13.9011 23.9073 12.9845C23.9073 11.8213 22.9611 10.875 21.7979 10.875ZM7.73513 4.21875C8.3813 4.21875 8.90701 4.74445 8.90701 5.39062V5.625H6.56326V5.39062C6.56326 4.74445 7.08896 4.21875 7.73513 4.21875ZM21.0948 15.7969C21.0948 18.5108 18.8868 20.7188 16.1729 20.7188H7.73541C5.02149 20.7188 2.81354 18.5108 2.81354 15.7969V13.6661C5.42016 14.6139 8.14819 15.0938 10.9457 15.0938H21.0948V15.7969ZM21.7979 13.6875H10.9457C7.78276 13.6875 4.71404 13.0363 1.82471 11.7518C1.47048 11.5944 1.31044 11.178 1.46799 10.8237C1.58419 10.5622 1.84215 10.4067 2.11191 10.4067C2.20707 10.4067 2.30373 10.4261 2.39607 10.467C5.10455 11.6709 7.98104 12.2813 10.9457 12.2813H21.7979C22.1856 12.2813 22.501 12.5967 22.501 12.9844C22.501 13.3721 22.1856 13.6875 21.7979 13.6875Z" fill="#005D20"/>
</g>
<defs>
<clipPath id="clip0_1344_6318">
<rect width="24" height="24" fill="white"/>
</clipPath>
</defs>
</svg>
