<svg width="26" height="26" viewBox="0 0 26 26" fill="none" xmlns="http://www.w3.org/2000/svg">
<g clip-path="url(#clip0_1322_6129)">
<path d="M23.0414 11.6647V4.4355C23.0414 2.96548 21.8454 1.76953 20.3754 1.76953H5.6206C4.15058 1.76953 2.95473 2.96548 2.95473 4.4355V11.6647C1.26087 12.0722 -0.00195312 13.599 -0.00195312 15.4161V20.8082C-0.00195312 21.236 0.344832 21.5828 0.772613 21.5828H2.95468V23.4562C2.95468 23.884 3.30147 24.2307 3.72925 24.2307C4.15703 24.2307 4.50382 23.884 4.50382 23.4562V21.5828H21.4922V23.4562C21.4922 23.884 21.839 24.2307 22.2667 24.2307C22.6945 24.2307 23.0413 23.884 23.0413 23.4562V21.5828H25.2234C25.6512 21.5828 25.9979 21.236 25.9979 20.8082V15.4161C25.998 13.599 24.7352 12.0722 23.0414 11.6647ZM4.50387 4.4355C4.50387 3.81972 5.00487 3.31871 5.6206 3.31871H20.3754C20.9912 3.31871 21.4922 3.81972 21.4922 4.4355V11.5572H18.9326V10.3352C18.9326 8.31051 17.2854 6.66337 15.2608 6.66337H10.7354C8.71074 6.66337 7.0636 8.31056 7.0636 10.3352V11.5571H4.50387V4.4355ZM17.3835 10.3352V11.5571H8.61263V10.3352C8.61263 9.1647 9.56483 8.2125 10.7353 8.2125H15.2608C16.4312 8.21245 17.3835 9.16475 17.3835 10.3352ZM1.54718 20.0337V15.4161C1.54718 14.1425 2.58337 13.1063 3.85702 13.1063H22.139C23.4126 13.1063 24.4488 14.1425 24.4488 15.4161V20.0337H1.54718Z" fill="#005D20"/>
</g>
<defs>
<clipPath id="clip0_1322_6129">
<rect width="26" height="26" fill="white"/>
</clipPath>
</defs>
</svg>
