<svg width="61" height="57" viewBox="0 0 61 57" fill="none" xmlns="http://www.w3.org/2000/svg">
<g clip-path="url(#clip0_1670_7797)">
<path fill-rule="evenodd" clip-rule="evenodd" d="M55.0035 53.7281V55.9593C55.0035 56.537 54.5368 57.0002 53.966 57.0002H6.75648C6.18063 57.0002 5.71896 56.532 5.71896 55.9593V53.7281V41.9346V29.3344C4.55734 29.7826 3.47018 29.7926 2.5667 29.4838C1.86178 29.2447 1.26608 28.8164 0.829229 28.2636C0.39238 27.7108 0.114385 27.0384 0.0299939 26.2964C-0.0990751 25.1459 0.243454 23.846 1.2214 22.6259C1.27104 22.5661 1.32565 22.5063 1.39018 22.4565L29.7109 0.274086C30.0783 -0.0645769 30.6442 -0.0994393 31.0512 0.219303L59.4415 22.3619C59.4861 22.3968 59.5258 22.4316 59.5656 22.4764C60.8811 23.8958 61.2087 25.4696 60.891 26.7994C60.7322 27.4568 60.4194 28.0494 59.9875 28.5325C59.5556 29.0206 59.0046 29.3991 58.3791 29.6232C57.3863 29.9818 56.2048 29.9719 55.0084 29.4041V41.9346V53.7281H55.0035ZM2.76526 24.0204C2.21424 24.7425 2.02064 25.4646 2.08517 26.0723C2.12488 26.4209 2.24899 26.7297 2.44756 26.9787C2.64116 27.2227 2.90426 27.407 3.22197 27.5166C3.76307 27.7008 4.46302 27.651 5.26225 27.2725L29.979 8.40698C30.3612 8.11314 30.8825 8.12808 31.2448 8.41196L55.2566 27.138C55.2666 27.148 55.2765 27.158 55.2914 27.1629C56.1701 27.8004 57.014 27.9 57.6692 27.666C57.9721 27.5564 58.2352 27.3771 58.4387 27.143C58.6472 26.9089 58.7961 26.6301 58.8706 26.3163C59.0344 25.629 58.8358 24.7823 58.1011 23.9556L30.4158 2.36085L2.76526 24.0204ZM14.6942 37.5968H27.9486C28.4649 37.5968 28.8868 38.0101 28.8868 38.5181V48.9221C28.8868 49.4301 28.4649 49.8434 27.9486 49.8434H14.6942C14.1779 49.8434 13.756 49.4301 13.756 48.9221V38.5181C13.761 38.0101 14.1779 37.5968 14.6942 37.5968ZM33.6227 36.6804H46.0679C46.6239 36.6804 47.0757 37.1485 47.0757 37.7262V54.9184H52.9235V28.174C52.9235 28.1042 52.9284 28.0395 52.9433 27.9747L30.5995 10.5485L7.75924 27.9847C7.78406 28.0694 7.79399 28.159 7.79399 28.2536V54.9134H32.615V37.7213C32.615 37.1435 33.0667 36.6804 33.6227 36.6804ZM45.0602 38.7671H34.6354V54.8935H45.0602V38.7671ZM27.0104 44.639H22.0909V48.0007H27.0104V44.639ZM20.2541 44.639H15.6325V48.0007H20.2541V44.639ZM15.6325 42.7962H20.2541V39.4395H15.6325V42.7962ZM22.0909 42.7962H27.0104V39.4395H22.0909V42.7962ZM30.2222 18.0937C31.9845 18.0937 33.4142 19.5281 33.4142 21.2961C33.4142 23.0641 31.9845 24.4985 30.2222 24.4985C28.4599 24.4985 27.0302 23.0641 27.0302 21.2961C27.0302 19.5231 28.4599 18.0937 30.2222 18.0937Z" fill="black"/>
</g>
<defs>
<clipPath id="clip0_1670_7797">
<rect width="61" height="57" fill="white"/>
</clipPath>
</defs>
</svg>
