<svg width="33" height="33" viewBox="0 0 33 33" fill="none" xmlns="http://www.w3.org/2000/svg">
<path d="M15.1142 20.3571C16.4963 19.4369 17.5456 18.0964 18.107 16.5338C18.6683 14.9711 18.7119 13.2693 18.2312 11.68C17.7506 10.0907 16.7712 8.69825 15.438 7.70858C14.1048 6.71891 12.4884 6.18457 10.828 6.18457C9.16761 6.18457 7.55128 6.71891 6.21804 7.70858C4.8848 8.69825 3.90545 10.0907 3.42479 11.68C2.94414 13.2693 2.98772 14.9711 3.54907 16.5338C4.11042 18.0964 5.15975 19.4369 6.54189 20.3571C4.04174 21.2786 1.90656 22.9837 0.454935 25.2181C0.378643 25.3315 0.32565 25.459 0.299038 25.593C0.272425 25.7271 0.272723 25.8651 0.299914 25.999C0.327105 26.1329 0.380648 26.2601 0.457429 26.3732C0.53421 26.4862 0.632698 26.5829 0.747169 26.6576C0.861639 26.7322 0.989809 26.7834 1.12423 26.8081C1.25864 26.8328 1.39663 26.8305 1.53016 26.8014C1.66369 26.7723 1.79011 26.717 1.90206 26.6386C2.01401 26.5602 2.10926 26.4603 2.18228 26.3448C3.11864 24.9046 4.39993 23.7212 5.90978 22.9019C7.41963 22.0827 9.11022 21.6536 10.828 21.6536C12.5458 21.6536 14.2364 22.0827 15.7463 22.9019C17.2561 23.7212 18.5374 24.9046 19.4738 26.3448C19.625 26.5696 19.8587 26.7258 20.1242 26.7797C20.3897 26.8336 20.6658 26.7809 20.8928 26.6329C21.1197 26.4848 21.2793 26.2535 21.337 25.9887C21.3947 25.724 21.3459 25.4472 21.2011 25.2181C19.7495 22.9837 17.6143 21.2786 15.1142 20.3571ZM5.15615 13.9221C5.15615 12.8003 5.4888 11.7037 6.11203 10.771C6.73526 9.83822 7.62109 9.11125 8.65749 8.68195C9.69389 8.25266 10.8343 8.14034 11.9345 8.35919C13.0348 8.57804 14.0454 9.11824 14.8386 9.91146C15.6319 10.7047 16.1721 11.7153 16.3909 12.8156C16.6098 13.9158 16.4974 15.0562 16.0681 16.0926C15.6389 17.129 14.9119 18.0148 13.9791 18.6381C13.0464 19.2613 11.9498 19.594 10.828 19.594C9.32427 19.5923 7.8826 18.9941 6.81928 17.9308C5.75597 16.8675 5.15785 15.4258 5.15615 13.9221ZM32.2445 26.6451C32.0154 26.7945 31.7364 26.8468 31.4688 26.7905C31.2012 26.7341 30.9669 26.5738 30.8175 26.3448C29.8823 24.9038 28.6012 23.7198 27.091 22.9009C25.5808 22.082 23.8897 21.6542 22.1718 21.6565C21.8983 21.6565 21.636 21.5478 21.4426 21.3544C21.2492 21.161 21.1405 20.8987 21.1405 20.6252C21.1405 20.3517 21.2492 20.0894 21.4426 19.896C21.636 19.7026 21.8983 19.594 22.1718 19.594C23.007 19.5932 23.8318 19.4079 24.5872 19.0514C25.3426 18.6949 26.0099 18.176 26.5415 17.5317C27.073 16.8874 27.4557 16.1336 27.6622 15.3243C27.8687 14.5149 27.8939 13.67 27.736 12.8498C27.5781 12.0296 27.241 11.2544 26.7487 10.5795C26.2565 9.90472 25.6213 9.34695 24.8885 8.94609C24.1557 8.54522 23.3434 8.31115 22.5097 8.26061C21.6759 8.21006 20.8413 8.34428 20.0654 8.65368C19.9389 8.70837 19.8028 8.73715 19.665 8.73831C19.5271 8.73947 19.3905 8.71301 19.2631 8.66047C19.1357 8.60793 19.0201 8.53038 18.9232 8.43242C18.8262 8.33445 18.7499 8.21805 18.6987 8.09009C18.6476 7.96214 18.6225 7.82522 18.6252 7.68743C18.6278 7.54964 18.658 7.41377 18.7141 7.28786C18.7701 7.16195 18.8508 7.04854 18.9514 6.95435C19.052 6.86015 19.1704 6.78707 19.2997 6.73943C21.0754 6.03128 23.0503 6.0058 24.8437 6.66789C26.637 7.32999 28.1216 8.63275 29.011 10.3248C29.9005 12.0169 30.1318 13.9785 29.6603 15.8311C29.1889 17.6837 28.048 19.296 26.4579 20.3571C28.958 21.2786 31.0932 22.9837 32.5449 25.2181C32.6942 25.4472 32.7465 25.7262 32.6902 25.9938C32.6339 26.2614 32.4735 26.4957 32.2445 26.6451Z" fill="#005D20"/>
</svg>
