<svg width="24" height="29" viewBox="0 0 24 29" fill="none" xmlns="http://www.w3.org/2000/svg">
<path fill-rule="evenodd" clip-rule="evenodd" d="M6.36301 2.04617C9.93945 -0.0485115 14.3355 -0.0118999 17.8783 2.14207C21.3864 4.33991 23.5185 8.26242 23.4986 12.4819C23.417 16.6738 21.1308 20.6141 18.273 23.6602C16.6236 25.4262 14.7784 26.9878 12.7752 28.3131C12.5689 28.4333 12.3429 28.5138 12.1084 28.5506C11.8827 28.5409 11.6629 28.4737 11.4688 28.355C8.41048 26.3636 5.72742 23.8218 3.54867 20.8516C1.72556 18.3723 0.689799 15.377 0.582033 12.2723C0.579666 8.04473 2.78658 4.14085 6.36301 2.04617ZM8.42886 14.0222C9.03047 15.5172 10.4505 16.4924 12.0259 16.4924C13.058 16.4999 14.0501 16.0831 14.7812 15.3351C15.5122 14.5871 15.9216 13.5699 15.9179 12.5101C15.9234 10.8926 14.9787 9.43112 13.5248 8.80817C12.0709 8.18523 10.3946 8.52367 9.27868 9.66547C8.16275 10.8073 7.82726 12.5272 8.42886 14.0222Z" fill="#005D20"/>
</svg>
