<svg width="64" height="64" viewBox="0 0 64 64" fill="none" xmlns="http://www.w3.org/2000/svg">
<path d="M58 54H52V10C52 8.93913 51.5786 7.92172 50.8284 7.17157C50.0783 6.42143 49.0609 6 48 6H16C14.9391 6 13.9217 6.42143 13.1716 7.17157C12.4214 7.92172 12 8.93913 12 10V54H6C5.46957 54 4.96086 54.2107 4.58579 54.5858C4.21071 54.9609 4 55.4696 4 56C4 56.5304 4.21071 57.0391 4.58579 57.4142C4.96086 57.7893 5.46957 58 6 58H58C58.5304 58 59.0391 57.7893 59.4142 57.4142C59.7893 57.0391 60 56.5304 60 56C60 55.4696 59.7893 54.9609 59.4142 54.5858C59.0391 54.2107 58.5304 54 58 54ZM48 54H44V10H48V54ZM16 10H40V54H16V10ZM36 33C36 33.5933 35.8241 34.1734 35.4944 34.6667C35.1648 35.1601 34.6962 35.5446 34.148 35.7716C33.5999 35.9987 32.9967 36.0581 32.4147 35.9424C31.8328 35.8266 31.2982 35.5409 30.8787 35.1213C30.4591 34.7018 30.1734 34.1672 30.0576 33.5853C29.9419 33.0033 30.0013 32.4001 30.2284 31.8519C30.4554 31.3038 30.8399 30.8352 31.3333 30.5056C31.8266 30.1759 32.4067 30 33 30C33.7956 30 34.5587 30.3161 35.1213 30.8787C35.6839 31.4413 36 32.2044 36 33Z" fill="#005D20"/>
</svg>
