<svg width="64" height="64" viewBox="0 0 64 64" fill="none" xmlns="http://www.w3.org/2000/svg">
<path d="M60 46H58V14.475L60.4175 13.955C60.6799 13.9058 60.9298 13.8045 61.1524 13.6572C61.375 13.5099 61.5659 13.3196 61.7138 13.0973C61.8617 12.8751 61.9636 12.6255 62.0136 12.3632C62.0635 12.101 62.0604 11.8314 62.0045 11.5704C61.9486 11.3093 61.841 11.0621 61.688 10.8433C61.5351 10.6246 61.3398 10.4386 61.1139 10.2964C60.8879 10.1543 60.6358 10.0588 60.3724 10.0156C60.1089 9.97242 59.8395 9.98241 59.58 10.045L3.58 22.045C3.09756 22.1491 2.67065 22.4279 2.38139 22.8278C2.09212 23.2277 1.96093 23.7204 2.01305 24.2112C2.06517 24.702 2.29691 25.1562 2.66371 25.4864C3.03051 25.8166 3.50646 25.9995 4 26C4.14202 25.9997 4.28362 25.9847 4.4225 25.955L6 25.6175V46H4C3.46957 46 2.96086 46.2107 2.58579 46.5858C2.21071 46.9608 2 47.4696 2 48C2 48.5304 2.21071 49.0391 2.58579 49.4142C2.96086 49.7893 3.46957 50 4 50H60C60.5304 50 61.0391 49.7893 61.4142 49.4142C61.7893 49.0391 62 48.5304 62 48C62 47.4696 61.7893 46.9608 61.4142 46.5858C61.0391 46.2107 60.5304 46 60 46ZM10 24.75L54 15.3325V46H48V32C48 31.4696 47.7893 30.9608 47.4142 30.5858C47.0391 30.2107 46.5304 30 46 30H18C17.4696 30 16.9609 30.2107 16.5858 30.5858C16.2107 30.9608 16 31.4696 16 32V46H10V24.75ZM44 38H20V34H44V38ZM20 42H44V46H20V42Z" fill="#005D20"/>
</svg>
